<svg width="391" height="310" viewBox="0 0 391 310" fill="none" xmlns="http://www.w3.org/2000/svg">
<mask id="path-1-inside-1_1952_6" fill="white">
<path d="M391.938 309.416H272.516V97.3867C272.515 81.7533 259.842 69.0803 244.209 69.0801H28.8037C13.3285 69.0801 0.72752 56.654 0.5 41.1904V0.246094H391.938V309.416Z"/>
</mask>
<path d="M391.938 309.416H272.516V97.3867C272.515 81.7533 259.842 69.0803 244.209 69.0801H28.8037C13.3285 69.0801 0.72752 56.654 0.5 41.1904V0.246094H391.938V309.416Z" fill="#F5F3F3"/>
<path d="M391.938 309.416V310.411H392.933V309.416H391.938ZM272.516 309.416H271.52V310.411H272.516V309.416ZM272.516 97.3867H273.511V97.3867L272.516 97.3867ZM244.209 69.0801L244.209 68.0849H244.209V69.0801ZM0.5 41.1904H-0.49518V41.1978L-0.495072 41.2051L0.5 41.1904ZM0.5 0.246094V-0.749086H-0.49518V0.246094H0.5ZM391.938 0.246094H392.933V-0.749086H391.938V0.246094ZM391.938 309.416V308.421H272.516V309.416V310.411H391.938V309.416ZM272.516 309.416H273.511V97.3867H272.516H271.52V309.416H272.516ZM272.516 97.3867L273.511 97.3867C273.511 81.2037 260.392 68.0851 244.209 68.0849L244.209 69.0801L244.209 70.0753C259.293 70.0755 271.52 82.3029 271.52 97.3867L272.516 97.3867ZM244.209 69.0801V68.0849H28.8037V69.0801V70.0753H244.209V69.0801ZM28.8037 69.0801V68.0849C13.8726 68.0849 1.71459 56.0957 1.49507 41.1758L0.5 41.1904L-0.495072 41.2051C-0.259553 57.2123 12.7844 70.0753 28.8037 70.0753V69.0801ZM0.5 41.1904H1.49518V0.246094H0.5H-0.49518V41.1904H0.5ZM0.5 0.246094V1.24127H391.938V0.246094V-0.749086H0.5V0.246094ZM391.938 0.246094H390.942V309.416H391.938H392.933V0.246094H391.938Z" fill="black" mask="url(#path-1-inside-1_1952_6)"/>
</svg>
