<svg width="119" height="47" viewBox="0 0 119 47" fill="none" xmlns="http://www.w3.org/2000/svg">
<mask id="mask0_1519_1202" style="mask-type:luminance" maskUnits="userSpaceOnUse" x="53" y="0" width="66" height="23">
<path d="M53.0547 22.2667V14.5583L53.1165 14.3084C53.3018 13.5963 55.3775 7.38713 69.4629 7.38713C73.2561 7.38713 75.616 5.45066 77.9018 3.57667C79.9404 1.90256 82.0532 0.166016 84.9321 0.166016H101.303L108.457 5.17585H118.416V18.4687L117.576 19.2933C117.217 19.5806 114.128 22.2917 110.619 22.2917V18.4437C112.942 18.4437 113.782 17.1694 114.499 16.4823V9.13619H107.234L100.08 4.12636H84.9321C83.4494 4.12636 82.0903 5.23829 80.3729 6.65003C77.8276 8.74891 74.6523 11.36 69.4629 11.36C59.7761 11.36 57.3791 14.5333 56.9838 15.2205V18.4437H57.9351V22.2667H53.0547Z" fill="white"/>
</mask>
<g mask="url(#mask0_1519_1202)">
<mask id="mask1_1519_1202" style="mask-type:luminance" maskUnits="userSpaceOnUse" x="-153" y="-890" width="424" height="1075">
<path d="M270.387 -889.555H-152.125V184.546H270.387V-889.555Z" fill="white"/>
</mask>
<g mask="url(#mask1_1519_1202)">
<path d="M123.41 -4.87891H48.0781V27.3288H123.41V-4.87891Z" fill="white"/>
</g>
</g>
<mask id="mask2_1519_1202" style="mask-type:luminance" maskUnits="userSpaceOnUse" x="59" y="14" width="12" height="12">
<path d="M64.7541 18.0929C63.8645 18.0929 63.1355 18.8175 63.1355 19.7171C63.1355 20.6166 63.8645 21.3412 64.7541 21.3412C65.6437 21.3412 66.3727 20.6166 66.3727 19.7171C66.3727 18.8175 65.6437 18.0929 64.7541 18.0929ZM64.7541 25.2641C61.7022 25.2641 59.2188 22.778 59.2188 19.7171C59.2188 16.6562 61.7022 14.1699 64.7541 14.1699C67.806 14.1699 70.2895 16.6562 70.2895 19.7171C70.2895 22.7655 67.806 25.2641 64.7541 25.2641Z" fill="white"/>
</mask>
<g mask="url(#mask2_1519_1202)">
<mask id="mask3_1519_1202" style="mask-type:luminance" maskUnits="userSpaceOnUse" x="-153" y="-890" width="424" height="1075">
<path d="M270.402 -889.562H-152.109V184.538H270.402V-889.562Z" fill="white"/>
</mask>
<g mask="url(#mask3_1519_1202)">
<path d="M75.2638 9.12891H54.2344V30.3053H75.2638V9.12891Z" fill="white"/>
</g>
</g>
<mask id="mask4_1519_1202" style="mask-type:luminance" maskUnits="userSpaceOnUse" x="98" y="14" width="12" height="12">
<path d="M103.863 18.0929C102.974 18.0929 102.245 18.8175 102.245 19.7171C102.245 20.6166 102.974 21.3412 103.863 21.3412C104.753 21.3412 105.482 20.6166 105.482 19.7171C105.482 18.8175 104.753 18.0929 103.863 18.0929ZM103.863 25.2641C100.812 25.2641 98.3281 22.778 98.3281 19.7171C98.3281 16.6562 100.812 14.1699 103.863 14.1699C106.915 14.1699 109.399 16.6562 109.399 19.7171C109.399 22.7655 106.915 25.2641 103.863 25.2641Z" fill="white"/>
</mask>
<g mask="url(#mask4_1519_1202)">
<mask id="mask5_1519_1202" style="mask-type:luminance" maskUnits="userSpaceOnUse" x="-153" y="-890" width="424" height="1075">
<path d="M270.449 -889.566H-152.062V184.534H270.449V-889.566Z" fill="white"/>
</mask>
<g mask="url(#mask5_1519_1202)">
<path d="M114.389 9.12695H93.3594V30.3033H114.389V9.12695Z" fill="white"/>
</g>
</g>
<mask id="mask6_1519_1202" style="mask-type:luminance" maskUnits="userSpaceOnUse" x="71" y="18" width="26" height="5">
<path d="M96.959 18.4355H71.2344V22.2586H96.959V18.4355Z" fill="white"/>
</mask>
<g mask="url(#mask6_1519_1202)">
<mask id="mask7_1519_1202" style="mask-type:luminance" maskUnits="userSpaceOnUse" x="-153" y="-890" width="424" height="1075">
<path d="M270.433 -889.562H-152.078V184.538H270.433V-889.562Z" fill="white"/>
</mask>
<g mask="url(#mask7_1519_1202)">
<path d="M101.945 13.3906H66.25V27.2957H101.945V13.3906Z" fill="#C1272D"/>
</g>
</g>
<mask id="mask8_1519_1202" style="mask-type:luminance" maskUnits="userSpaceOnUse" x="0" y="3" width="119" height="44">
<path d="M105.08 27.7785V38.935L113.766 27.7785H118.485V45.9812H113.766V34.8497L105.08 45.9812H100.36V27.7785H105.08ZM86.3237 45.9812V27.7785H96.6901V31.7888H91.0436V45.9937H86.3237V45.9812ZM61.9832 36.8861C61.9832 35.5368 62.2303 34.275 62.7246 33.1006C63.2188 31.9387 63.9107 30.9143 64.7879 30.0397C65.6652 29.1652 66.7278 28.4906 67.951 28.0033C69.1742 27.5161 70.5333 27.2663 72.0036 27.2663C73.4616 27.2663 74.8083 27.5161 76.0439 28.0033C77.2794 28.4906 78.342 29.1777 79.2316 30.0397C80.1212 30.9143 80.8131 31.9262 81.3074 33.1006C81.8016 34.2625 82.0487 35.5243 82.0487 36.8861C82.0487 38.2354 81.8016 39.4972 81.3074 40.6716C80.8131 41.8334 80.1212 42.8579 79.2316 43.7324C78.342 44.607 77.2794 45.2816 76.0439 45.7689C74.8083 46.2561 73.4616 46.506 72.0036 46.506C70.5333 46.506 69.1742 46.2561 67.951 45.7689C66.7278 45.2816 65.6652 44.5945 64.7879 43.7324C63.9107 42.8579 63.2188 41.8459 62.7246 40.6716C62.2303 39.4972 61.9832 38.2354 61.9832 36.8861ZM66.9131 36.8861C66.9131 37.6107 67.049 38.2729 67.3208 38.885C67.5927 39.4972 67.9633 40.0219 68.4328 40.4842C68.9023 40.9464 69.4337 41.2837 70.0514 41.5336C70.6692 41.7835 71.324 41.9084 72.016 41.9084C72.7079 41.9084 73.3627 41.7835 73.9805 41.5336C74.5983 41.2837 75.1419 40.9339 75.6114 40.4842C76.081 40.0344 76.4516 39.4972 76.7358 38.885C77.0076 38.2729 77.1435 37.6107 77.1435 36.8861C77.1435 36.1615 77.0076 35.4994 76.7358 34.8872C76.464 34.275 76.0933 33.7502 75.6114 33.288C75.1419 32.8382 74.5983 32.4884 73.9805 32.2386C73.3627 31.9887 72.7079 31.8638 72.016 31.8638C71.324 31.8638 70.6692 31.9887 70.0514 32.2386C69.4337 32.4884 68.89 32.8382 68.4328 33.288C67.9633 33.7378 67.605 34.275 67.3208 34.8872C67.049 35.4869 66.9131 36.1615 66.9131 36.8861ZM49.9365 45.9812H45.2167V27.7785H52.7165C54.7552 27.7785 56.312 28.3157 57.3993 29.3776C58.4866 30.4395 59.0179 31.9387 59.0179 33.8752C59.0179 35.8117 58.4742 37.2984 57.3993 38.3728C56.312 39.4347 54.7552 39.9719 52.7165 39.9719H49.9365V45.9812ZM49.9365 36.1365H51.5057C53.2355 36.1365 54.1004 35.3744 54.1004 33.8627C54.1004 32.351 53.2355 31.589 51.5057 31.589H49.9365V36.1365ZM20.8762 36.8861C20.8762 35.5368 21.1233 34.275 21.6175 33.1006C22.1118 31.9387 22.8037 30.9143 23.6809 30.0397C24.5582 29.1652 25.6207 28.4906 26.8439 28.0033C28.0671 27.5161 29.4263 27.2663 30.8966 27.2663C32.3545 27.2663 33.7013 27.5161 34.9368 28.0033C36.1724 28.4906 37.235 29.1777 38.1246 30.0397C39.0142 30.9143 39.7061 31.9262 40.2003 33.1006C40.6945 34.2625 40.9417 35.5243 40.9417 36.8861C40.9417 38.2354 40.6945 39.4972 40.2003 40.6716C39.7061 41.8334 39.0142 42.8579 38.1246 43.7324C37.235 44.607 36.1724 45.2816 34.9368 45.7689C33.7013 46.2561 32.3545 46.506 30.8966 46.506C29.4263 46.506 28.0671 46.2561 26.8439 45.7689C25.6207 45.2816 24.5582 44.5945 23.6809 43.7324C22.8037 42.8579 22.1118 41.8459 21.6175 40.6716C21.1233 39.4972 20.8762 38.2354 20.8762 36.8861ZM25.8061 36.8861C25.8061 37.6107 25.942 38.2729 26.2138 38.885C26.4856 39.4972 26.8563 40.0219 27.3258 40.4842C27.7953 40.9339 28.3266 41.2837 28.9444 41.5336C29.5622 41.7835 30.217 41.9084 30.9089 41.9084C31.6008 41.9084 32.2557 41.7835 32.8735 41.5336C33.4912 41.2837 34.0349 40.9339 34.5044 40.4842C34.9739 40.0344 35.3446 39.4972 35.6288 38.885C35.9006 38.2729 36.0365 37.6107 36.0365 36.8861C36.0365 36.1615 35.9006 35.4994 35.6288 34.8872C35.3569 34.275 34.9863 33.7502 34.5044 33.288C34.0349 32.8382 33.4912 32.4884 32.8735 32.2386C32.2557 31.9887 31.6008 31.8638 30.9089 31.8638C30.217 31.8638 29.5622 31.9887 28.9444 32.2386C28.3266 32.4884 27.783 32.8382 27.3258 33.288C26.8563 33.7378 26.498 34.275 26.2138 34.8872C25.942 35.4869 25.8061 36.1615 25.8061 36.8861ZM16.6259 45.9812H11.906V31.7764H5.0981V45.9812H0.390625V27.7785H16.6259V45.9812ZM46.3658 8.064H40.7563V11.1124H46.0445V15.1227H40.7563V18.2586H46.3658V22.2689H36.0488V4.06614H46.3658V8.064ZM31.3661 10.1379C30.2788 8.80112 28.932 8.13897 27.3258 8.13897C26.6215 8.13897 25.9667 8.26392 25.3613 8.52628C24.7558 8.78864 24.2369 9.13844 23.8045 9.5757C23.372 10.013 23.0261 10.5502 22.7789 11.1624C22.5318 11.7746 22.4083 12.4367 22.4083 13.1488C22.4083 13.8734 22.5318 14.5356 22.7789 15.1477C23.0261 15.7599 23.372 16.2846 23.8168 16.7469C24.2616 17.1966 24.7805 17.5464 25.3736 17.8088C25.9667 18.0711 26.6092 18.1961 27.3011 18.1961C28.8085 18.1961 30.1676 17.5464 31.3661 16.2596V21.8566L30.8842 22.0316C30.1676 22.2939 29.488 22.4813 28.8579 22.5938C28.2278 22.7187 27.61 22.7687 27.0046 22.7687C25.7566 22.7687 24.5582 22.5313 23.4091 22.0565C22.26 21.5818 21.2469 20.9196 20.382 20.0576C19.5047 19.1955 18.8005 18.1711 18.2815 16.9967C17.7502 15.8099 17.4908 14.523 17.4908 13.1238C17.4908 11.7245 17.7502 10.4378 18.2692 9.27588C18.7881 8.114 19.4924 7.10202 20.3573 6.25247C21.2345 5.40292 22.2477 4.7533 23.3967 4.27855C24.5458 3.8038 25.7566 3.56641 27.0293 3.56641C27.7459 3.56641 28.4625 3.6414 29.1544 3.79132C29.8464 3.94124 30.5877 4.17858 31.3537 4.50341V10.1379H31.3661ZM0.390625 4.05363H7.4086C9.07661 4.05363 10.3369 4.45344 11.2141 5.26551C12.079 6.06508 12.5115 7.22694 12.5115 8.73863C12.5115 9.65064 12.3508 10.4128 12.0172 11.0249C11.6836 11.6246 11.1894 12.1368 10.5099 12.5616C11.1894 12.6865 11.7578 12.8864 12.2273 13.1488C12.6968 13.4112 13.0798 13.736 13.3763 14.1233C13.6729 14.5106 13.8829 14.9478 14.0188 15.4226C14.1548 15.8973 14.2165 16.4221 14.2165 16.9718C14.2165 17.8213 14.0683 18.5834 13.7717 19.2455C13.4752 19.9077 13.0551 20.4574 12.5238 20.9072C11.9925 21.3569 11.3377 21.6942 10.5593 21.9191C9.79323 22.144 8.92834 22.2564 7.96461 22.2564H0.390625V4.05363ZM5.0981 11.1998H5.96299C7.43331 11.1998 8.17464 10.6126 8.17464 9.43827C8.17464 8.26389 7.43331 7.6767 5.96299 7.6767H5.0981V11.1998ZM5.0981 18.5834H6.13597C7.32211 18.5834 8.17464 18.4335 8.68122 18.1211C9.20016 17.8213 9.44728 17.3216 9.44728 16.6469C9.44728 15.9723 9.1878 15.485 8.68122 15.1727C8.16229 14.8728 7.32211 14.7105 6.13597 14.7105H5.0981V18.5834Z" fill="white"/>
</mask>
<g mask="url(#mask8_1519_1202)">
<mask id="mask9_1519_1202" style="mask-type:luminance" maskUnits="userSpaceOnUse" x="-153" y="-890" width="424" height="1075">
<path d="M270.433 -889.562H-152.078V184.538H270.433V-889.562Z" fill="white"/>
</mask>
<g mask="url(#mask9_1519_1202)">
<path d="M123.452 -1.48828H-4.60156V51.5334H123.452V-1.48828Z" fill="white"/>
</g>
</g>
</svg>
