<svg width="64" height="28" viewBox="0 0 64 28" fill="none" xmlns="http://www.w3.org/2000/svg">
<mask id="mask0_1936_422" style="mask-type:luminance" maskUnits="userSpaceOnUse" x="28" y="0" width="36" height="14">
<path d="M28.6172 13.2748V8.82049L28.6497 8.6761C28.7472 8.2646 29.8395 4.67663 37.2515 4.67663C39.2475 4.67663 40.4893 3.55764 41.6921 2.47475C42.7649 1.50737 43.8767 0.503906 45.3916 0.503906H54.0064L57.7709 3.39884H63.0113V11.0801L62.5692 11.5566C62.3806 11.7227 60.7552 13.2892 58.9087 13.2892V11.0657C60.131 11.0657 60.5731 10.3293 60.9502 9.93228V5.68733H57.1272L53.3627 2.79239H45.3916C44.6114 2.79239 43.8962 3.43492 42.9925 4.2507C41.6531 5.46354 39.9822 6.97238 37.2515 6.97238C32.1541 6.97238 30.8928 8.80607 30.6847 9.20313V11.0657H31.1854V13.2748H28.6172Z" fill="white"/>
</mask>
<g mask="url(#mask0_1936_422)">
<mask id="mask1_1936_422" style="mask-type:luminance" maskUnits="userSpaceOnUse" x="-80" y="-514" width="223" height="622">
<path d="M142.989 -513.621H-79.3438V107.049H142.989V-513.621Z" fill="white"/>
</mask>
<g mask="url(#mask1_1936_422)">
<path d="M65.641 -2.41016H26V16.2011H65.641V-2.41016Z" fill="black"/>
</g>
</g>
<mask id="mask2_1936_422" style="mask-type:luminance" maskUnits="userSpaceOnUse" x="31" y="8" width="7" height="8">
<path d="M34.7409 10.8607C34.2728 10.8607 33.8892 11.2794 33.8892 11.7992C33.8892 12.319 34.2728 12.7377 34.7409 12.7377C35.2091 12.7377 35.5927 12.319 35.5927 11.7992C35.5927 11.2794 35.2091 10.8607 34.7409 10.8607ZM34.7409 15.0046C33.135 15.0046 31.8281 13.5679 31.8281 11.7992C31.8281 10.0304 33.135 8.59375 34.7409 8.59375C36.3469 8.59375 37.6537 10.0304 37.6537 11.7992C37.6537 13.5607 36.3469 15.0046 34.7409 15.0046Z" fill="white"/>
</mask>
<g mask="url(#mask2_1936_422)">
<mask id="mask3_1936_422" style="mask-type:luminance" maskUnits="userSpaceOnUse" x="-80" y="-514" width="223" height="622">
<path d="M142.973 -513.629H-79.3594V107.041H142.973V-513.629Z" fill="white"/>
</mask>
<g mask="url(#mask3_1936_422)">
<path d="M40.2848 5.68164H29.2188V17.9184H40.2848V5.68164Z" fill="black"/>
</g>
</g>
<mask id="mask4_1936_422" style="mask-type:luminance" maskUnits="userSpaceOnUse" x="52" y="8" width="7" height="8">
<path d="M55.3269 10.8646C54.8587 10.8646 54.4751 11.2833 54.4751 11.8031C54.4751 12.3229 54.8587 12.7416 55.3269 12.7416C55.795 12.7416 56.1786 12.3229 56.1786 11.8031C56.1786 11.2833 55.795 10.8646 55.3269 10.8646ZM55.3269 15.0085C53.7209 15.0085 52.4141 13.5718 52.4141 11.8031C52.4141 10.0343 53.7209 8.59766 55.3269 8.59766C56.9328 8.59766 58.2397 10.0343 58.2397 11.8031C58.2397 13.5646 56.9328 15.0085 55.3269 15.0085Z" fill="white"/>
</mask>
<g mask="url(#mask4_1936_422)">
<mask id="mask5_1936_422" style="mask-type:luminance" maskUnits="userSpaceOnUse" x="-80" y="-514" width="223" height="622">
<path d="M142.989 -513.625H-79.3438V107.045H142.989V-513.625Z" fill="white"/>
</mask>
<g mask="url(#mask5_1936_422)">
<path d="M60.8707 5.68555H49.8047V17.9223H60.8707V5.68555Z" fill="black"/>
</g>
</g>
<mask id="mask6_1936_422" style="mask-type:luminance" maskUnits="userSpaceOnUse" x="38" y="11" width="14" height="3">
<path d="M51.7008 11.0664H38.1641V13.2755H51.7008V11.0664Z" fill="white"/>
</mask>
<g mask="url(#mask6_1936_422)">
<mask id="mask7_1936_422" style="mask-type:luminance" maskUnits="userSpaceOnUse" x="-80" y="-514" width="223" height="622">
<path d="M142.981 -513.625H-79.3516V107.045H142.981V-513.625Z" fill="white"/>
</mask>
<g mask="url(#mask7_1936_422)">
<path d="M54.3225 8.14844H35.5391V16.1835H54.3225V8.14844Z" fill="#C1272D"/>
</g>
</g>
<mask id="mask8_1936_422" style="mask-type:luminance" maskUnits="userSpaceOnUse" x="0" y="2" width="64" height="26">
<path d="M55.9719 16.4636V22.9104L60.5426 16.4636H63.0263V26.9821H60.5426V20.5497L55.9719 26.9821H53.4882V16.4636H55.9719ZM46.1023 26.9821V16.4636H51.5572V18.781H48.5859V26.9893H46.1023V26.9821ZM33.2939 21.7265C33.2939 20.9468 33.4239 20.2176 33.684 19.539C33.9441 18.8676 34.3082 18.2756 34.7698 17.7703C35.2314 17.2649 35.7906 16.8751 36.4342 16.5936C37.0779 16.312 37.7931 16.1676 38.5668 16.1676C39.334 16.1676 40.0427 16.312 40.6929 16.5936C41.343 16.8751 41.9022 17.2722 42.3703 17.7703C42.8384 18.2756 43.2025 18.8604 43.4626 19.539C43.7227 20.2104 43.8527 20.9396 43.8527 21.7265C43.8527 22.5062 43.7227 23.2353 43.4626 23.9139C43.2025 24.5853 42.8384 25.1773 42.3703 25.6826C41.9022 26.188 41.343 26.5778 40.6929 26.8594C40.0427 27.1409 39.334 27.2853 38.5668 27.2853C37.7931 27.2853 37.0779 27.1409 36.4342 26.8594C35.7906 26.5778 35.2314 26.1808 34.7698 25.6826C34.3082 25.1773 33.9441 24.5925 33.684 23.9139C33.4239 23.2353 33.2939 22.5062 33.2939 21.7265ZM35.8881 21.7265C35.8881 22.1452 35.9596 22.5278 36.1026 22.8816C36.2457 23.2353 36.4407 23.5385 36.6878 23.8056C36.9349 24.0727 37.2144 24.2676 37.5395 24.412C37.8646 24.5564 38.2092 24.6286 38.5733 24.6286C38.9374 24.6286 39.282 24.5564 39.6071 24.412C39.9322 24.2676 40.2182 24.0655 40.4653 23.8056C40.7124 23.5457 40.9074 23.2353 41.057 22.8816C41.2 22.5278 41.2715 22.1452 41.2715 21.7265C41.2715 21.3078 41.2 20.9251 41.057 20.5714C40.9139 20.2176 40.7189 19.9144 40.4653 19.6473C40.2182 19.3874 39.9322 19.1853 39.6071 19.0409C39.282 18.8965 38.9374 18.8243 38.5733 18.8243C38.2092 18.8243 37.8646 18.8965 37.5395 19.0409C37.2144 19.1853 36.9284 19.3874 36.6878 19.6473C36.4407 19.9072 36.2522 20.2176 36.1026 20.5714C35.9596 20.9179 35.8881 21.3078 35.8881 21.7265ZM26.9547 26.9821H24.4711V16.4636H28.4176C29.4904 16.4636 30.3096 16.774 30.8818 17.3877C31.4539 18.0013 31.7335 18.8676 31.7335 19.9866C31.7335 21.1056 31.4474 21.9647 30.8818 22.5856C30.3096 23.1992 29.4904 23.5096 28.4176 23.5096H26.9547V26.9821ZM26.9547 21.2933H27.7804C28.6907 21.2933 29.1458 20.8529 29.1458 19.9794C29.1458 19.1059 28.6907 18.6655 27.7804 18.6655H26.9547V21.2933ZM11.6627 21.7265C11.6627 20.9468 11.7927 20.2176 12.0528 19.539C12.3128 18.8676 12.6769 18.2756 13.1386 17.7703C13.6002 17.2649 14.1593 16.8751 14.803 16.5936C15.4467 16.312 16.1619 16.1676 16.9356 16.1676C17.7028 16.1676 18.4115 16.312 19.0616 16.5936C19.7118 16.8751 20.271 17.2722 20.7391 17.7703C21.2072 18.2756 21.5713 18.8604 21.8314 19.539C22.0914 20.2104 22.2215 20.9396 22.2215 21.7265C22.2215 22.5062 22.0914 23.2353 21.8314 23.9139C21.5713 24.5853 21.2072 25.1773 20.7391 25.6826C20.271 26.188 19.7118 26.5778 19.0616 26.8594C18.4115 27.1409 17.7028 27.2853 16.9356 27.2853C16.1619 27.2853 15.4467 27.1409 14.803 26.8594C14.1593 26.5778 13.6002 26.1808 13.1386 25.6826C12.6769 25.1773 12.3128 24.5925 12.0528 23.9139C11.7927 23.2353 11.6627 22.5062 11.6627 21.7265ZM14.2569 21.7265C14.2569 22.1452 14.3284 22.5278 14.4714 22.8816C14.6145 23.2353 14.8095 23.5385 15.0566 23.8056C15.3036 24.0655 15.5832 24.2676 15.9083 24.412C16.2334 24.5564 16.578 24.6286 16.9421 24.6286C17.3062 24.6286 17.6508 24.5564 17.9758 24.412C18.3009 24.2676 18.587 24.0655 18.8341 23.8056C19.0811 23.5457 19.2762 23.2353 19.4257 22.8816C19.5688 22.5278 19.6403 22.1452 19.6403 21.7265C19.6403 21.3078 19.5688 20.9251 19.4257 20.5714C19.2827 20.2176 19.0876 19.9144 18.8341 19.6473C18.587 19.3874 18.3009 19.1853 17.9758 19.0409C17.6508 18.8965 17.3062 18.8243 16.9421 18.8243C16.578 18.8243 16.2334 18.8965 15.9083 19.0409C15.5832 19.1853 15.2971 19.3874 15.0566 19.6473C14.8095 19.9072 14.621 20.2176 14.4714 20.5714C14.3284 20.9179 14.2569 21.3078 14.2569 21.7265ZM9.42608 26.9821H6.94241V18.7738H3.35997V26.9821H0.882812V16.4636H9.42608V26.9821ZM25.0757 5.0716H22.1239V6.83309H24.9067V9.15049H22.1239V10.9625H25.0757V13.2799H19.6468V2.76143H25.0757V5.0716ZM17.1826 6.27C16.6105 5.49754 15.9018 5.11492 15.0566 5.11492C14.686 5.11492 14.3414 5.18712 14.0228 5.33872C13.7042 5.49033 13.4311 5.69246 13.2036 5.94513C12.976 6.19781 12.794 6.50825 12.6639 6.862C12.5339 7.21574 12.4689 7.59836 12.4689 8.00985C12.4689 8.42857 12.5339 8.81119 12.6639 9.16494C12.794 9.51868 12.976 9.82188 13.2101 10.089C13.4441 10.3489 13.7172 10.551 14.0293 10.7026C14.3414 10.8542 14.6795 10.9264 15.0436 10.9264C15.8368 10.9264 16.552 10.551 17.1826 9.80745V13.0417L16.9291 13.1428C16.552 13.2944 16.1944 13.4027 15.8628 13.4676C15.5312 13.5398 15.2061 13.5687 14.8875 13.5687C14.2309 13.5687 13.6002 13.4315 12.9955 13.1572C12.3909 12.8829 11.8577 12.5002 11.4026 12.0021C10.941 11.504 10.5704 10.912 10.2973 10.2334C10.0177 9.54755 9.8812 8.80396 9.8812 7.9954C9.8812 7.18684 10.0177 6.44327 10.2908 5.77188C10.5639 5.10049 10.9345 4.51571 11.3896 4.0248C11.8512 3.53389 12.3844 3.1585 12.989 2.88417C13.5937 2.60984 14.2308 2.47266 14.9005 2.47266C15.2776 2.47266 15.6547 2.51599 16.0188 2.60262C16.3829 2.68926 16.773 2.8264 17.1761 3.0141V6.27H17.1826ZM0.882812 2.7542H4.57579C5.45353 2.7542 6.1167 2.98523 6.57832 3.45448C7.03344 3.91652 7.261 4.5879 7.261 5.46143C7.261 5.98844 7.17648 6.42883 7.00093 6.78258C6.82539 7.1291 6.56532 7.42508 6.20772 7.67053C6.56532 7.74273 6.8644 7.85825 7.11147 8.00985C7.35853 8.16146 7.56008 8.34915 7.71612 8.57294C7.87216 8.79674 7.9827 9.04941 8.05422 9.32374C8.12573 9.59807 8.15824 9.90131 8.15824 10.219C8.15824 10.7099 8.08022 11.1502 7.92418 11.5328C7.76814 11.9155 7.54707 12.2331 7.2675 12.493C6.98793 12.7529 6.64334 12.9478 6.23373 13.0778C5.83063 13.2077 5.37551 13.2727 4.86837 13.2727H0.882812V2.7542ZM3.35997 6.88364H3.81509C4.58879 6.88364 4.9789 6.54433 4.9789 5.86572C4.9789 5.1871 4.58879 4.84779 3.81509 4.84779H3.35997V6.88364ZM3.35997 11.1502H3.90611C4.53028 11.1502 4.9789 11.0636 5.24547 10.8831C5.51854 10.7098 5.64858 10.4211 5.64858 10.0313C5.64858 9.64141 5.51204 9.35984 5.24547 9.17936C4.97239 9.00609 4.53028 8.91226 3.90611 8.91226H3.35997V11.1502Z" fill="white"/>
</mask>
<g mask="url(#mask8_1936_422)">
<mask id="mask9_1936_422" style="mask-type:luminance" maskUnits="userSpaceOnUse" x="-80" y="-514" width="223" height="622">
<path d="M142.989 -513.625H-79.3438V107.045H142.989V-513.625Z" fill="white"/>
</mask>
<g mask="url(#mask9_1936_422)">
<path d="M65.6417 -0.449219H-1.74219V30.1894H65.6417V-0.449219Z" fill="black"/>
</g>
</g>
</svg>
