<svg width="78" height="34" viewBox="0 0 78 34" fill="none" xmlns="http://www.w3.org/2000/svg">
<mask id="mask0_1519_148" style="mask-type:luminance" maskUnits="userSpaceOnUse" x="34" y="0" width="44" height="17">
<path d="M34.7656 16.5533V11.0809L34.8056 10.9035C34.9254 10.3979 36.2674 5.98981 45.3735 5.98981C47.8258 5.98981 49.3515 4.61504 50.8292 3.28462C52.1472 2.09612 53.5132 0.863281 55.3744 0.863281H65.9583L70.5833 4.41994H77.0215V13.857L76.4783 14.4424C76.2467 14.6464 74.2497 16.5711 71.9812 16.5711V13.8393C73.4829 13.8393 74.026 12.9346 74.4893 12.4468V7.23153H69.7925L65.1675 3.67487H55.3744C54.4158 3.67487 53.5371 4.46427 52.4268 5.46652C50.7813 6.95658 48.7284 8.81032 45.3735 8.81032C39.111 8.81032 37.5614 11.0631 37.3058 11.551V13.8393H37.9208V16.5533H34.7656Z" fill="white"/>
</mask>
<g mask="url(#mask0_1519_148)">
<mask id="mask1_1519_148" style="mask-type:luminance" maskUnits="userSpaceOnUse" x="-98" y="-631" width="274" height="763">
<path d="M175.271 -630.779H-97.8828V131.763H175.271V-630.779Z" fill="white"/>
</mask>
<g mask="url(#mask1_1519_148)">
<path d="M80.249 -2.7168H31.5469V20.1486H80.249V-2.7168Z" fill="black"/>
</g>
</g>
<mask id="mask2_1519_148" style="mask-type:luminance" maskUnits="userSpaceOnUse" x="38" y="10" width="8" height="9">
<path d="M42.2974 13.5898C41.7222 13.5898 41.2509 14.1042 41.2509 14.7428C41.2509 15.3814 41.7222 15.8958 42.2974 15.8958C42.8725 15.8958 43.3438 15.3814 43.3438 14.7428C43.3438 14.1042 42.8725 13.5898 42.2974 13.5898ZM42.2974 18.6809C40.3243 18.6809 38.7188 16.9158 38.7188 14.7428C38.7188 12.5698 40.3243 10.8047 42.2974 10.8047C44.2704 10.8047 45.876 12.5698 45.876 14.7428C45.876 16.907 44.2704 18.6809 42.2974 18.6809Z" fill="white"/>
</mask>
<g mask="url(#mask2_1519_148)">
<mask id="mask3_1519_148" style="mask-type:luminance" maskUnits="userSpaceOnUse" x="-98" y="-631" width="274" height="763">
<path d="M175.255 -630.785H-97.8984V131.757H175.255V-630.785Z" fill="white"/>
</mask>
<g mask="url(#mask3_1519_148)">
<path d="M49.0955 7.22656H35.5V22.2604H49.0955V7.22656Z" fill="black"/>
</g>
</g>
<mask id="mask4_1519_148" style="mask-type:luminance" maskUnits="userSpaceOnUse" x="64" y="10" width="8" height="9">
<path d="M67.602 13.5937C67.0269 13.5937 66.5556 14.1081 66.5556 14.7467C66.5556 15.3853 67.0269 15.8997 67.602 15.8997C68.1772 15.8997 68.6485 15.3853 68.6485 14.7467C68.6485 14.1081 68.1772 13.5937 67.602 13.5937ZM67.602 18.6848C65.629 18.6848 64.0234 16.9197 64.0234 14.7467C64.0234 12.5737 65.629 10.8086 67.602 10.8086C69.5751 10.8086 71.1807 12.5737 71.1807 14.7467C71.1807 16.9109 69.5751 18.6848 67.602 18.6848Z" fill="white"/>
</mask>
<g mask="url(#mask4_1519_148)">
<mask id="mask5_1519_148" style="mask-type:luminance" maskUnits="userSpaceOnUse" x="-98" y="-631" width="274" height="763">
<path d="M175.294 -630.789H-97.8594V131.753H175.294V-630.789Z" fill="white"/>
</mask>
<g mask="url(#mask5_1519_148)">
<path d="M74.408 7.22461H60.8125V22.2585H74.408V7.22461Z" fill="black"/>
</g>
</g>
<mask id="mask6_1519_148" style="mask-type:luminance" maskUnits="userSpaceOnUse" x="46" y="13" width="18" height="4">
<path d="M63.1231 13.8359H46.4922V16.55H63.1231V13.8359Z" fill="white"/>
</mask>
<g mask="url(#mask6_1519_148)">
<mask id="mask7_1519_148" style="mask-type:luminance" maskUnits="userSpaceOnUse" x="-98" y="-631" width="274" height="763">
<path d="M175.263 -630.785H-97.8906V131.757H175.263V-630.785Z" fill="white"/>
</mask>
<g mask="url(#mask7_1519_148)">
<path d="M66.3426 10.2539H43.2656V20.1256H66.3426V10.2539Z" fill="#C1272D"/>
</g>
</g>
<mask id="mask8_1519_148" style="mask-type:luminance" maskUnits="userSpaceOnUse" x="0" y="3" width="78" height="31">
<path d="M68.4001 20.4625V28.3829L74.0156 20.4625H77.0669V33.3852H74.0156V25.4825L68.4001 33.3852H65.3487V20.4625H68.4001ZM56.2745 33.3852V20.4625H62.9763V23.3095H59.3258V33.3941H56.2745V33.3852ZM40.5383 26.9283C40.5383 25.9704 40.6981 25.0745 41.0176 24.2408C41.3371 23.416 41.7844 22.6887 42.3516 22.0678C42.9187 21.4469 43.6057 20.968 44.3965 20.6221C45.1873 20.2762 46.066 20.0988 47.0165 20.0988C47.9591 20.0988 48.8298 20.2762 49.6286 20.6221C50.4273 20.968 51.1143 21.4558 51.6894 22.0678C52.2645 22.6887 52.7119 23.4071 53.0314 24.2408C53.3509 25.0657 53.5107 25.9615 53.5107 26.9283C53.5107 27.8862 53.3509 28.782 53.0314 29.6157C52.7119 30.4406 52.2645 31.1679 51.6894 31.7887C51.1143 32.4096 50.4273 32.8886 49.6286 33.2345C48.8298 33.5804 47.9591 33.7578 47.0165 33.7578C46.066 33.7578 45.1873 33.5804 44.3965 33.2345C43.6057 32.8886 42.9187 32.4007 42.3516 31.7887C41.7844 31.1679 41.3371 30.4494 41.0176 29.6157C40.6981 28.782 40.5383 27.8862 40.5383 26.9283ZM43.7255 26.9283C43.7255 27.4427 43.8134 27.9128 43.9891 28.3474C44.1648 28.782 44.4045 29.1545 44.708 29.4827C45.0115 29.8108 45.355 30.0503 45.7544 30.2277C46.1538 30.4051 46.5772 30.4938 47.0245 30.4938C47.4718 30.4938 47.8952 30.4051 48.2946 30.2277C48.694 30.0503 49.0454 29.802 49.349 29.4827C49.6525 29.1634 49.8922 28.782 50.0759 28.3474C50.2516 27.9128 50.3395 27.4427 50.3395 26.9283C50.3395 26.4139 50.2516 25.9438 50.0759 25.5092C49.9001 25.0746 49.6605 24.702 49.349 24.3739C49.0454 24.0546 48.694 23.8062 48.2946 23.6288C47.8952 23.4514 47.4718 23.3627 47.0245 23.3627C46.5772 23.3627 46.1538 23.4514 45.7544 23.6288C45.355 23.8062 45.0036 24.0546 44.708 24.3739C44.4045 24.6932 44.1728 25.0746 43.9891 25.5092C43.8134 25.9349 43.7255 26.4139 43.7255 26.9283ZM32.7502 33.3852H29.6988V20.4625H34.5474C35.8654 20.4625 36.8719 20.8438 37.5748 21.5977C38.2778 22.3516 38.6212 23.416 38.6212 24.7907C38.6212 26.1655 38.2698 27.221 37.5748 27.9837C36.8719 28.7376 35.8654 29.119 34.5474 29.119H32.7502V33.3852ZM32.7502 26.3961H33.7646C34.8829 26.3961 35.4421 25.8551 35.4421 24.7819C35.4421 23.7087 34.8829 23.1676 33.7646 23.1676H32.7502V26.3961ZM13.9627 26.9283C13.9627 25.9704 14.1224 25.0745 14.4419 24.2408C14.7614 23.416 15.2088 22.6887 15.7759 22.0678C16.343 21.4469 17.03 20.968 17.8208 20.6221C18.6116 20.2762 19.4903 20.0988 20.4408 20.0988C21.3834 20.0988 22.2541 20.2762 23.0529 20.6221C23.8517 20.968 24.5386 21.4558 25.1137 22.0678C25.6889 22.6887 26.1362 23.4071 26.4557 24.2408C26.7752 25.0657 26.935 25.9615 26.935 26.9283C26.935 27.8862 26.7752 28.782 26.4557 29.6157C26.1362 30.4406 25.6889 31.1679 25.1137 31.7887C24.5386 32.4096 23.8517 32.8886 23.0529 33.2345C22.2541 33.5804 21.3834 33.7578 20.4408 33.7578C19.4903 33.7578 18.6116 33.5804 17.8208 33.2345C17.03 32.8886 16.343 32.4007 15.7759 31.7887C15.2088 31.1679 14.7614 30.4494 14.4419 29.6157C14.1224 28.782 13.9627 27.8862 13.9627 26.9283ZM17.1498 26.9283C17.1498 27.4427 17.2377 27.9128 17.4134 28.3474C17.5892 28.782 17.8288 29.1545 18.1323 29.4827C18.4359 29.802 18.7793 30.0503 19.1787 30.2277C19.5781 30.4051 20.0015 30.4938 20.4488 30.4938C20.8961 30.4938 21.3195 30.4051 21.7189 30.2277C22.1183 30.0503 22.4697 29.802 22.7733 29.4827C23.0768 29.1634 23.3165 28.782 23.5002 28.3474C23.6759 27.9128 23.7638 27.4427 23.7638 26.9283C23.7638 26.4139 23.6759 25.9438 23.5002 25.5092C23.3245 25.0746 23.0848 24.702 22.7733 24.3739C22.4697 24.0546 22.1183 23.8062 21.7189 23.6288C21.3195 23.4514 20.8961 23.3627 20.4488 23.3627C20.0015 23.3627 19.5781 23.4514 19.1787 23.6288C18.7793 23.8062 18.4279 24.0546 18.1323 24.3739C17.8288 24.6932 17.5971 25.0746 17.4134 25.5092C17.2377 25.9349 17.1498 26.4139 17.1498 26.9283ZM11.2148 33.3852H8.16345V23.3007H3.76213V33.3852H0.71875V20.4625H11.2148V33.3852ZM30.4417 6.46644H26.8152V8.63058H30.234V11.4777H26.8152V13.7039H30.4417V16.551H23.7718V3.62822H30.4417V6.46644ZM20.7444 7.93878C20.0414 6.98975 19.1708 6.51967 18.1323 6.51967C17.677 6.51967 17.2537 6.60837 16.8623 6.79463C16.4709 6.98089 16.1354 7.22922 15.8558 7.53965C15.5762 7.85008 15.3525 8.23149 15.1928 8.66609C15.033 9.10069 14.9532 9.57077 14.9532 10.0763C14.9532 10.5908 15.033 11.0608 15.1928 11.4954C15.3525 11.93 15.5762 12.3025 15.8638 12.6307C16.1513 12.95 16.4868 13.1984 16.8702 13.3846C17.2537 13.5709 17.669 13.6596 18.1164 13.6596C19.0909 13.6596 19.9695 13.1984 20.7444 12.2848V16.2583L20.4328 16.3825C19.9695 16.5688 19.5302 16.7018 19.1228 16.7816C18.7154 16.8703 18.3161 16.9058 17.9246 16.9058C17.1179 16.9058 16.3431 16.7373 15.6002 16.4002C14.8573 16.0632 14.2023 15.5931 13.6431 14.9811C13.076 14.3691 12.6207 13.6418 12.2852 12.8081C11.9417 11.9655 11.774 11.0519 11.774 10.0586C11.774 9.06519 11.9417 8.15165 12.2772 7.32679C12.6127 6.50194 13.068 5.78349 13.6272 5.18037C14.1943 4.57725 14.8493 4.11605 15.5922 3.77901C16.3351 3.44197 17.1179 3.27344 17.9406 3.27344C18.4039 3.27344 18.8672 3.32668 19.3145 3.43311C19.7619 3.53955 20.2411 3.70804 20.7364 3.93865V7.93878H20.7444ZM0.71875 3.61934H5.25587C6.33423 3.61934 7.14899 3.90318 7.71613 4.47969C8.27528 5.04734 8.55486 5.87218 8.55486 6.94538C8.55486 7.59285 8.45102 8.13391 8.23534 8.56852C8.01967 8.99425 7.70016 9.35788 7.26083 9.65944C7.70016 9.74814 8.0676 9.89007 8.37114 10.0763C8.67468 10.2626 8.9223 10.4932 9.11401 10.7681C9.30572 11.0431 9.44152 11.3535 9.52939 11.6905C9.61725 12.0276 9.65719 12.4001 9.65719 12.7904C9.65719 13.3935 9.56134 13.9345 9.36963 14.4046C9.17792 14.8747 8.90632 15.265 8.56285 15.5843C8.21937 15.9036 7.79602 16.143 7.29278 16.3027C6.79753 16.4623 6.23838 16.5421 5.61533 16.5421H0.71875V3.61934ZM3.76213 8.69268H4.32128C5.27184 8.69268 5.75112 8.27581 5.75112 7.44208C5.75112 6.60835 5.27184 6.19148 4.32128 6.19148H3.76213V8.69268ZM3.76213 13.9345H4.43311C5.19995 13.9345 5.75111 13.8281 6.07862 13.6063C6.41411 13.3935 6.57387 13.0387 6.57387 12.5598C6.57387 12.0808 6.40612 11.7349 6.07862 11.5131C5.74313 11.3003 5.19995 11.185 4.43311 11.185H3.76213V13.9345Z" fill="white"/>
</mask>
<g mask="url(#mask8_1519_148)">
<mask id="mask9_1519_148" style="mask-type:luminance" maskUnits="userSpaceOnUse" x="-98" y="-631" width="274" height="763">
<path d="M175.286 -630.791H-97.8672V131.751H175.286V-630.791Z" fill="white"/>
</mask>
<g mask="url(#mask9_1519_148)">
<path d="M80.2708 -0.316406H-2.51562V37.3255H80.2708V-0.316406Z" fill="black"/>
</g>
</g>
</svg>
