<svg width="361" height="640" viewBox="0 0 361 640" fill="none" xmlns="http://www.w3.org/2000/svg">
<path d="M-16.1061 324.156C-15.6999 311.208 -5.08599 300.921 7.86853 300.921H311.347C324.594 300.921 335.333 290.182 335.333 276.935V14.086C335.333 7.77204 339.71 2.30154 345.87 0.915871V0.915871C354.31 -0.982563 362.332 5.43558 362.332 14.0861V473.164C362.332 486.411 351.593 497.151 338.345 497.151H41.986C28.7387 497.151 17.9996 507.89 17.9996 521.137V620.549C17.9996 630.598 10.256 638.95 0.235287 639.709V639.709C-10.9162 640.553 -20.4297 631.732 -20.4297 620.549V461.987L-16.1061 324.156Z" fill="#F6F4F4"/>
</svg>
