<svg width="353" height="371" viewBox="0 0 353 371" fill="none" xmlns="http://www.w3.org/2000/svg">
<path fill-rule="evenodd" clip-rule="evenodd" d="M361.947 370.573V0.65625H36.5747C16.5174 0.65625 0.257812 16.9159 0.257812 36.9731C0.257812 57.0304 16.5174 73.29 36.5747 73.29H300.64C321.106 73.29 337.698 89.8812 337.698 110.348C337.698 130.814 321.106 147.405 300.64 147.405H37.3154C16.8491 147.405 0.257812 163.996 0.257812 184.462C0.257812 204.929 16.849 221.52 37.3153 221.52H300.75C321.156 221.52 337.698 238.062 337.698 258.468C337.698 278.873 321.156 295.415 300.75 295.415H37.8365C17.0824 295.415 0.257812 312.24 0.257812 332.994C0.257812 353.748 17.0823 370.573 37.8364 370.573H346.914H361.947Z" fill="#AB0000"/>
</svg>
