<svg width="47" height="47" viewBox="0 0 47 47" fill="none" xmlns="http://www.w3.org/2000/svg">
<circle cx="23.4344" cy="23.6337" r="22.9657" fill="#4C75A3"/>
<path fill-rule="evenodd" clip-rule="evenodd" d="M37.1703 16.5953C37.3694 15.9465 37.1703 15.4688 36.2169 15.4688H33.0687C32.2676 15.4688 31.8982 15.8811 31.6979 16.3363C31.6979 16.3363 30.0969 20.1343 27.829 22.6014C27.0951 23.3168 26.7617 23.5438 26.3611 23.5438C26.1608 23.5438 25.8598 23.3168 25.8598 22.6668V16.5953C25.8598 15.8158 25.6391 15.4688 24.9723 15.4688H20.0216C19.5215 15.4688 19.2205 15.83 19.2205 16.1735C19.2205 16.9114 20.355 17.0826 20.4714 19.1599V23.6733C20.4714 24.6633 20.2879 24.8427 19.8873 24.8427C18.8199 24.8427 16.2235 21.0268 14.6824 16.6607C14.3837 15.811 14.0815 15.4688 13.2768 15.4688H10.1262C9.22677 15.4688 9.04688 15.8811 9.04688 16.3363C9.04688 17.1467 10.1142 21.173 14.0179 26.4981C16.6204 30.1346 20.2843 32.1061 23.6219 32.1061C25.6235 32.1061 25.8706 31.6688 25.8706 30.9142V28.1654C25.8706 27.2896 26.0601 27.1149 26.6945 27.1149C27.1622 27.1149 27.9621 27.3431 29.8306 29.0959C31.9654 31.1744 32.3168 32.1061 33.5185 32.1061H36.6666C37.5661 32.1061 38.017 31.6688 37.758 30.8036C37.4725 29.9433 36.4531 28.6943 35.1015 27.2124C34.3676 26.3686 33.2666 25.4595 32.932 25.0043C32.4655 24.4208 32.5986 24.1606 32.932 23.6413C32.932 23.6413 36.7698 18.3815 37.1691 16.5953" fill="white"/>
</svg>
